# xmcd
# 
# Track frame offsets:
#     187
#     25602
#     43917
# 
# Disc length: 923
# 
# Revision: 3
# Processed by: cddbd v1.5.2PL0 Copyright (c) Steve Scherf et al.
# Submitted via: fre:ac v1.0.17
# 
DISCID=1c039903
DTITLE=広瀬香美 - DEAR...again
DYEAR=1996
DGENRE=J-Pop
TTITLE0=DEAR,,,again
TTITLE1=みなさんのおかげです
TTITLE2=DEAR...again(オリジナル・カラオケ)
EXTD=
EXTT0=
EXTT1=
EXTT2=
PLAYORDER=
